<svg width="91" height="18" viewBox="0 0 91 18" fill="none" xmlns="http://www.w3.org/2000/svg"><path d="M85.4066 8.99998V12.4369H88.1881V13.0922C88.1881 14.6284 86.9428 15.8737 85.4066 15.8737V18H86.4697C87.0783 18 87.6587 17.8791 88.1881 17.6601C89.0629 17.2985 89.7987 16.6689 90.2934 15.8737C90.7221 15.1846 90.9697 14.3712 90.9697 13.5V8.99998H85.4066ZM90.9697 5.56308H85.4066V0H90.9697V5.56308Z" fill="#794DFD"></path><path d="M11.8056 9.23642C11.8056 10.2664 11.6899 11.1175 11.4588 11.7899C11.2276 12.4624 10.9203 12.9904 10.5368 13.3739C10.1531 13.7576 9.72505 14.028 9.25218 14.1856C8.77934 14.3432 8.30106 14.4221 7.81789 14.4221C6.91401 14.4221 6.19689 14.2277 5.66639 13.8388C5.13565 13.4502 4.73646 12.9537 4.46851 12.3493C4.20056 11.7452 4.02964 11.1148 3.95623 10.458C3.88262 9.80139 3.84587 9.21033 3.84587 8.68476V0.488647H0V9.99296C0 10.4028 0.0340033 10.9362 0.10248 11.5928C0.170683 12.2496 0.320446 12.9458 0.551693 13.6813C0.782704 14.4169 1.14002 15.1104 1.62351 15.7618C2.10668 16.4135 2.75835 16.9494 3.57796 17.3695C4.39757 17.7897 5.43784 18 6.69879 18C8.29589 18 9.64083 17.6505 10.7338 16.9518C11.32 16.577 11.8292 16.1327 12.2627 15.6202V17.5114H15.6199V0.488647H11.8056V9.23642Z" fill="#313134"></path><path d="M34.7801 4.31871C34.5489 3.58333 34.1915 2.88982 33.7083 2.23815C33.2249 1.58676 32.5735 1.05085 31.7539 0.630434C30.9343 0.210288 29.894 0 28.633 0C27.0357 0 25.6908 0.349436 24.598 1.04811C24.0118 1.42305 23.5026 1.86737 23.0691 2.37973V0.488583H19.6804V17.5113H23.5262V8.76356C23.5262 7.72324 23.6417 6.86967 23.873 6.20225C24.104 5.53507 24.4113 5.00975 24.7951 4.62603C25.1785 4.24259 25.6068 3.97194 26.0797 3.81434C26.5525 3.6567 27.0305 3.57788 27.514 3.57788C28.4176 3.57788 29.1347 3.77246 29.6654 4.16107C30.1959 4.54995 30.5954 5.04645 30.8633 5.65056C31.1313 6.25494 31.302 6.88271 31.3756 7.53411C31.449 8.18577 31.4859 8.77931 31.4859 9.31521V17.5113H35.3318V8.00694C35.3318 7.59714 35.2976 7.06397 35.2294 6.40718C35.1609 5.75057 35.0112 5.05437 34.7801 4.31871Z" fill="#313134"></path><path d="M49.7538 12.9098C49.0182 13.9185 47.8939 14.4229 46.3808 14.4229C44.9201 14.4229 43.8141 13.9319 43.0629 12.9492C42.3115 11.9668 41.9359 10.6507 41.9359 9.00089C41.9359 7.92908 42.0936 6.98607 42.4088 6.17163C42.7241 5.35747 43.2099 4.72155 43.8668 4.26447C44.5233 3.80738 45.3614 3.5788 46.3808 3.5788C47.8727 3.5788 48.9918 4.07016 49.738 5.05254C50.484 6.03519 50.8571 7.35133 50.8571 9.00089C50.8571 10.5982 50.4892 11.9011 49.7538 12.9098ZM50.8571 1.16726C49.5856 0.400377 48.0934 0.0166626 46.3808 0.0166626C44.71 0.0166626 43.2388 0.394931 41.9675 1.15151C40.6959 1.90808 39.7029 2.95894 38.9885 4.30388C38.2738 5.64905 37.9167 7.21462 37.9167 9.00089C37.9167 10.7559 38.2659 12.3084 38.9648 13.6585C39.6635 15.0089 40.6486 16.0676 41.9202 16.8345C43.1915 17.6014 44.6785 17.9851 46.3808 17.9851C48.0831 17.9851 49.5698 17.6041 50.8414 16.8424C52.1127 16.0806 53.1032 15.0246 53.8125 13.6743C54.5218 12.3241 54.8764 10.7662 54.8764 9.00089C54.8764 7.24615 54.5242 5.69359 53.8203 4.34329C53.1163 2.99314 52.1284 1.93441 50.8571 1.16726Z" fill="#313134"></path><path d="M76.1368 0.489665L72.7952 11.4126L69.438 0.489665H66.2384L62.8653 11.4126L59.5396 0.489665L55.8198 0.45813L61.0212 17.5124H63.9844L67.8303 5.80137L71.6919 17.5124H74.6551L79.8566 0.489665H76.1368Z" fill="#313134"></path></svg>